<?xml version="1.0" encoding="UTF-8"?>
<svg xmlns="http://www.w3.org/2000/svg" xmlns:xlink="http://www.w3.org/1999/xlink" width="0" height="0">
<defs>
<symbol viewBox="0 0 16 20" fill="none" id="document-fill">
  <path     d="M13.75 1.69987e-08C14.3201 -7.00219e-05 14.869 0.216295 15.2858 0.605369C15.7025 0.994443 15.956 1.52721 15.995 2.096L16 2.25V17.75C16.0001 18.3201 15.7837 18.869 15.3946 19.2858C15.0056 19.7025 14.4728 19.956 13.904 19.995L13.75 20H2.25C1.67987 20.0001 1.13098 19.7837 0.714247 19.3946C0.297514 19.0056 0.0440221 18.4728 0.00500013 17.904L1.69987e-08 17.75V2.25C-7.00219e-05 1.67987 0.216295 1.13098 0.605369 0.714247C0.994443 0.297514 1.52721 0.0440221 2.096 0.00500013L2.25 1.69987e-08H13.75ZM4.505 3.005C4.10718 3.005 3.72564 3.16304 3.44434 3.44434C3.16304 3.72564 3.005 4.10718 3.005 4.505C3.005 4.90282 3.16304 5.28436 3.44434 5.56566C3.72564 5.84696 4.10718 6.005 4.505 6.005H11.505C11.9028 6.005 12.2844 5.84696 12.5657 5.56566C12.847 5.28436 13.005 4.90282 13.005 4.505C13.005 4.10718 12.847 3.72564 12.5657 3.44434C12.2844 3.16304 11.9028 3.005 11.505 3.005H4.505Z"
    fill="var(--primary-icon)" ></path>
</symbol>
<symbol viewBox="0 0 16 20" fill="none" id="document-outline">
  <path     d="M4.505 3.004C4.10718 3.004 3.72564 3.16204 3.44434 3.44334C3.16304 3.72464 3.005 4.10618 3.005 4.504C3.005 4.90182 3.16304 5.28336 3.44434 5.56466C3.72564 5.84596 4.10718 6.004 4.505 6.004H11.505C11.9028 6.004 12.2844 5.84596 12.5657 5.56466C12.847 5.28336 13.005 4.90182 13.005 4.504C13.005 4.10618 12.847 3.72464 12.5657 3.44334C12.2844 3.16204 11.9028 3.004 11.505 3.004H4.505ZM15.995 2.096C15.956 1.52721 15.7025 0.994443 15.2858 0.605369C14.869 0.216295 14.3201 -7.00219e-05 13.75 1.69987e-08H2.25L2.096 0.00500013C1.52721 0.0440221 0.994443 0.297514 0.605369 0.714247C0.216295 1.13098 -7.00219e-05 1.67987 1.69987e-08 2.25V17.75L0.00500013 17.904C0.0440221 18.4728 0.297514 19.0056 0.714247 19.3946C1.13098 19.7837 1.67987 20.0001 2.25 20H13.75L13.904 19.995C14.4728 19.956 15.0056 19.7025 15.3946 19.2858C15.7837 18.869 16.0001 18.3201 16 17.75V2.25L15.995 2.096ZM2.25 1.5H13.75L13.852 1.507C14.0316 1.53165 14.1961 1.62048 14.3152 1.75707C14.4344 1.89366 14.5 2.06876 14.5 2.25V17.75L14.493 17.852C14.4684 18.0316 14.3795 18.1961 14.2429 18.3152C14.1063 18.4344 13.9312 18.5 13.75 18.5H2.25L2.148 18.493C1.96845 18.4684 1.80389 18.3795 1.68477 18.2429C1.56564 18.1063 1.50001 17.9312 1.5 17.75V2.25L1.507 2.148C1.53165 1.96845 1.62048 1.80389 1.75707 1.68477C1.89366 1.56564 2.06876 1.50001 2.25 1.5Z"
    fill="var(--primary-icon)" ></path>
</symbol>
<symbol viewBox="0 0 18 20" fill="none" id="home-fill">
  <path     d="M7.55 0.533014C7.95577 0.191036 8.46935 0.003479 9 0.003479C9.53065 0.003479 10.0442 0.191036 10.45 0.533014L17.2 6.22801C17.708 6.65501 18 7.28401 18 7.94801V17.75C18 18.2141 17.8156 18.6593 17.4874 18.9874C17.1592 19.3156 16.7141 19.5 16.25 19.5H13.25C12.7859 19.5 12.3408 19.3156 12.0126 18.9874C11.6844 18.6593 11.5 18.2141 11.5 17.75V12.75C11.5 12.5511 11.421 12.3603 11.2803 12.2197C11.1397 12.079 10.9489 12 10.75 12H7.25C7.05109 12 6.86032 12.079 6.71967 12.2197C6.57902 12.3603 6.5 12.5511 6.5 12.75V17.75C6.5 18.2141 6.31563 18.6593 5.98744 18.9874C5.65925 19.3156 5.21413 19.5 4.75 19.5H1.75C1.52019 19.5 1.29262 19.4547 1.0803 19.3668C0.867984 19.2789 0.675066 19.15 0.512563 18.9874C0.350061 18.8249 0.221157 18.632 0.133211 18.4197C0.0452652 18.2074 0 17.9798 0 17.75V7.94701C0 7.28401 0.292 6.65501 0.8 6.22701L7.55 0.533014Z"
    fill="var(--primary-icon)" ></path>
</symbol>
<symbol viewBox="0 0 18 20" fill="none" id="home-outline">
  <path     d="M7.55 0.532007C7.95577 0.190029 8.46935 0.00247192 9 0.00247192C9.53065 0.00247192 10.0442 0.190029 10.45 0.532007L17.2 6.22401C17.707 6.65201 18 7.28101 18 7.94401V17.747C18 18.2111 17.8156 18.6563 17.4874 18.9844C17.1592 19.3126 16.7141 19.497 16.25 19.497H12.75C12.2859 19.497 11.8408 19.3126 11.5126 18.9844C11.1844 18.6563 11 18.2111 11 17.747V12.247C11 12.1807 10.9737 12.1171 10.9268 12.0702C10.8799 12.0233 10.8163 11.997 10.75 11.997H7.25C7.1837 11.997 7.12011 12.0233 7.07322 12.0702C7.02634 12.1171 7 12.1807 7 12.247V17.747C7 18.2111 6.81563 18.6563 6.48744 18.9844C6.15925 19.3126 5.71413 19.497 5.25 19.497H1.75C1.52019 19.497 1.29262 19.4517 1.0803 19.3638C0.867984 19.2759 0.675066 19.1469 0.512563 18.9844C0.350061 18.8219 0.221157 18.629 0.133211 18.4167C0.0452652 18.2044 0 17.9768 0 17.747V7.94401C0 7.28101 0.293 6.65201 0.8 6.22401L7.55 0.532007ZM9.483 1.67901C9.34779 1.56519 9.17673 1.50278 9 1.50278C8.82327 1.50278 8.65221 1.56519 8.517 1.67901L1.767 7.37001C1.68347 7.44032 1.6163 7.52803 1.57018 7.627C1.52406 7.72597 1.50011 7.83382 1.5 7.94301V17.746C1.5 17.884 1.612 17.996 1.75 17.996H5.25C5.3163 17.996 5.37989 17.9697 5.42678 17.9228C5.47366 17.8759 5.5 17.8123 5.5 17.746V12.246C5.5 11.279 6.284 10.496 7.25 10.496H10.75C11.716 10.496 12.5 11.279 12.5 12.246V17.746C12.5 17.884 12.612 17.996 12.75 17.996H16.25C16.3163 17.996 16.3799 17.9697 16.4268 17.9228C16.4737 17.8759 16.5 17.8123 16.5 17.746V7.94401C16.4999 7.83482 16.4759 7.72697 16.4298 7.628C16.3837 7.52903 16.3165 7.44132 16.233 7.37101L9.483 1.67901Z"
    fill="var(--primary-icon)" ></path>
</symbol>
<symbol viewBox="0 0 250 40" fill="none" id="login-logo">
  <path     d="M14.1566 33.488C15.474 33.488 16.5486 33.2973 17.3806 32.916C18.2473 32.5 18.906 31.9627 19.3566 31.304C19.842 30.6107 20.1713 29.8307 20.3446 28.964C20.518 28.0627 20.6046 27.144 20.6046 26.208V25.272H27.4686V26.208C27.4686 30.5413 26.3246 33.8867 24.0366 36.244C21.7833 38.5667 18.49 39.728 14.1566 39.728C9.99663 39.728 6.70329 38.4627 4.27663 35.932C1.84996 33.4013 0.636625 29.7093 0.636625 24.856V16.744C0.636625 14.4213 0.948625 12.3413 1.57262 10.504C2.19663 8.632 3.09796 7.072 4.27663 5.824C5.45529 4.54133 6.87663 3.57067 8.54063 2.912C10.2046 2.21866 12.0766 1.872 14.1566 1.872C16.306 1.872 18.2126 2.184 19.8766 2.808C21.5406 3.432 22.9273 4.33333 24.0366 5.512C25.1806 6.69067 26.03 8.112 26.5846 9.776C27.174 11.44 27.4686 13.312 27.4686 15.392V16.328H20.6046V15.392C20.6046 14.5253 20.5006 13.6587 20.2926 12.792C20.0846 11.9253 19.738 11.1453 19.2526 10.452C18.7673 9.75867 18.1086 9.204 17.2766 8.788C16.4446 8.33733 15.4046 8.112 14.1566 8.112C13.0126 8.112 12.0246 8.33733 11.1926 8.788C10.3606 9.204 9.66729 9.79333 9.11263 10.556C8.55796 11.284 8.14196 12.1507 7.86463 13.156C7.62196 14.1267 7.50063 15.1493 7.50063 16.224V25.376C7.50063 26.5547 7.62196 27.6467 7.86463 28.652C8.10729 29.6227 8.48863 30.472 9.00863 31.2C9.52863 31.928 10.2046 32.5 11.0366 32.916C11.9033 33.2973 12.9433 33.488 14.1566 33.488ZM40.6925 39H34.1405V2.6H40.6925V17.368H41.6285C42.2871 15.808 43.2578 14.612 44.5405 13.78C45.8231 12.9133 47.4005 12.48 49.2725 12.48C50.5551 12.48 51.7338 12.688 52.8085 13.104C53.8831 13.52 54.8191 14.144 55.6165 14.976C56.4138 15.808 57.0378 16.8827 57.4885 18.2C57.9391 19.4827 58.1645 21.008 58.1645 22.776V39H51.6125V24.336C51.6125 22.4987 51.1618 21.06 50.2605 20.02C49.3938 18.9453 48.1285 18.408 46.4645 18.408C44.5231 18.408 43.0671 19.0667 42.0965 20.384C41.1605 21.6667 40.6925 23.4 40.6925 25.584V39ZM66.3443 32.76H75.0803V19.448H66.9683V13.208H81.6323V32.76H89.1203V39H66.3443V32.76ZM83.2443 5.564C83.2443 6.25733 83.1056 6.916 82.8283 7.54C82.5856 8.12933 82.239 8.64933 81.7883 9.1C81.3376 9.516 80.8003 9.86267 80.1763 10.14C79.587 10.3827 78.963 10.504 78.3043 10.504C77.611 10.504 76.9696 10.3827 76.3803 10.14C75.791 9.86267 75.271 9.516 74.8203 9.1C74.3696 8.64933 74.0056 8.12933 73.7283 7.54C73.4856 6.916 73.3643 6.25733 73.3643 5.564C73.3643 4.87066 73.4856 4.22933 73.7283 3.64C74.0056 3.016 74.3696 2.496 74.8203 2.08C75.271 1.62933 75.791 1.28266 76.3803 1.04C76.9696 0.762665 77.611 0.623998 78.3043 0.623998C78.963 0.623998 79.587 0.762665 80.1763 1.04C80.8003 1.28266 81.3376 1.62933 81.7883 2.08C82.239 2.496 82.5856 3.016 82.8283 3.64C83.1056 4.22933 83.2443 4.87066 83.2443 5.564ZM96.4682 2.6H122.676V9.152H113.004V39H106.14V9.152H96.4682V2.6ZM136.212 39H129.66V2.6H136.212V17.368H137.148C137.807 15.808 138.777 14.612 140.06 13.78C141.343 12.9133 142.92 12.48 144.792 12.48C146.075 12.48 147.253 12.688 148.328 13.104C149.403 13.52 150.339 14.144 151.136 14.976C151.933 15.808 152.557 16.8827 153.008 18.2C153.459 19.4827 153.684 21.008 153.684 22.776V39H147.132V24.336C147.132 22.4987 146.681 21.06 145.78 20.02C144.913 18.9453 143.648 18.408 141.984 18.408C140.043 18.408 138.587 19.0667 137.616 20.384C136.68 21.6667 136.212 23.4 136.212 25.584V39ZM178.088 35.256C177.395 36.8853 176.424 38.0467 175.176 38.74C173.928 39.3987 172.472 39.728 170.808 39.728C169.248 39.728 167.775 39.4333 166.388 38.844C165.036 38.2547 163.84 37.388 162.8 36.244C161.76 35.1 160.928 33.7133 160.304 32.084C159.715 30.4547 159.42 28.6 159.42 26.52V25.688C159.42 23.6427 159.715 21.8053 160.304 20.176C160.893 18.5467 161.691 17.16 162.696 16.016C163.701 14.872 164.863 14.0053 166.18 13.416C167.532 12.792 168.971 12.48 170.496 12.48C172.333 12.48 173.807 12.792 174.916 13.416C176.06 14.04 176.961 15.0107 177.62 16.328H178.556V13.208H185.108V31.2C185.108 32.24 185.576 32.76 186.512 32.76H187.5V39H183.028C181.849 39 180.879 38.6533 180.116 37.96C179.388 37.2667 179.024 36.3653 179.024 35.256H178.088ZM172.264 33.488C174.171 33.488 175.696 32.864 176.84 31.616C177.984 30.3333 178.556 28.6 178.556 26.416V25.792C178.556 23.608 177.984 21.892 176.84 20.644C175.696 19.3613 174.171 18.72 172.264 18.72C170.357 18.72 168.832 19.3613 167.688 20.644C166.544 21.892 165.972 23.608 165.972 25.792V26.416C165.972 28.6 166.544 30.3333 167.688 31.616C168.832 32.864 170.357 33.488 172.264 33.488ZM199.788 39H193.236V13.208H199.788V17.056H200.724C201.313 15.6 202.266 14.4733 203.584 13.676C204.901 12.8787 206.444 12.48 208.212 12.48C209.46 12.48 210.621 12.688 211.696 13.104C212.805 13.4853 213.776 14.092 214.608 14.924C215.44 15.756 216.081 16.8133 216.532 18.096C217.017 19.3787 217.26 20.904 217.26 22.672V39H210.708V24.336C210.708 22.4987 210.257 21.06 209.356 20.02C208.489 18.9453 207.224 18.408 205.56 18.408C203.618 18.408 202.162 19.0667 201.192 20.384C200.256 21.6667 199.788 23.4 199.788 25.584V39ZM231.732 39H225.18V2.6H231.732V17.368H232.668C233.326 15.808 234.297 14.612 235.58 13.78C236.862 12.9133 238.44 12.48 240.312 12.48C241.594 12.48 242.773 12.688 243.848 13.104C244.922 13.52 245.858 14.144 246.656 14.976C247.453 15.808 248.077 16.8827 248.528 18.2C248.978 19.4827 249.204 21.008 249.204 22.776V39H242.652V24.336C242.652 22.4987 242.201 21.06 241.3 20.02C240.433 18.9453 239.168 18.408 237.504 18.408C235.562 18.408 234.106 19.0667 233.136 20.384C232.2 21.6667 231.732 23.4 231.732 25.584V39Z"
    fill="#1877F2" ></path>
</symbol>
<symbol viewBox="0 0 18 20" fill="none" id="notification-fill">
  <path     d="M6.04198 17.003H11.958C11.8398 17.702 11.4778 18.3365 10.9364 18.7941C10.3949 19.2517 9.7089 19.5028 8.99998 19.5028C8.29106 19.5028 7.60505 19.2517 7.06358 18.7941C6.52212 18.3365 6.16019 17.702 6.04198 17.003ZM8.99998 0.00299072C10.9891 0.00299072 12.8968 0.793167 14.3033 2.19969C15.7098 3.60621 16.5 5.51387 16.5 7.50299V11.503L17.918 14.663C17.9825 14.8075 18.0098 14.9659 17.9975 15.1236C17.9853 15.2814 17.9338 15.4336 17.8477 15.5665C17.7617 15.6993 17.6439 15.8085 17.5049 15.8842C17.3659 15.9599 17.2102 15.9997 17.052 16H0.951982C0.793514 16 0.63757 15.9603 0.498349 15.8846C0.359129 15.8089 0.241055 15.6996 0.154881 15.5666C0.0687061 15.4336 0.0171681 15.2812 0.00495981 15.1232C-0.0072485 14.9652 0.0202608 14.8066 0.0849826 14.662L1.49998 11.502V7.48999L1.50498 7.23999C1.57339 5.29784 2.39298 3.45807 3.79108 2.10828C5.18918 0.758493 7.05663 0.00308197 8.99998 0.00299072Z"
    fill="var(--primary-icon)" ></path>
</symbol>
<symbol viewBox="0 0 18 21" fill="none" id="notification-outline">
  <path     d="M8.99998 0.996009C10.9466 0.99345 12.8177 1.74885 14.217 3.10217C15.6162 4.45548 16.4336 6.30039 16.496 8.24601L16.5 8.49601V12.593L17.88 15.749C17.963 15.9392 17.9973 16.147 17.9799 16.3538C17.9625 16.5606 17.8939 16.7598 17.7803 16.9334C17.6667 17.107 17.5117 17.2497 17.3292 17.3484C17.1467 17.4471 16.9425 17.4989 16.735 17.499L12 17.502C12.001 18.283 11.6974 19.0336 11.1537 19.5943C10.6101 20.155 9.86917 20.4816 9.08852 20.5046C8.30787 20.5277 7.54899 20.2454 6.97319 19.7177C6.39738 19.1901 6.05004 18.4587 6.00498 17.679L5.99998 17.499H1.27498C1.06779 17.4988 0.863907 17.4471 0.681636 17.3486C0.499364 17.25 0.344415 17.1078 0.230702 16.9346C0.116989 16.7614 0.0480737 16.5627 0.0301447 16.3563C0.0122156 16.1499 0.0458343 15.9422 0.127982 15.752L1.49998 12.594V8.49601C1.49998 4.34101 4.85198 0.996009 8.99998 0.996009ZM10.5 17.5L7.49998 17.502C7.49992 17.8873 7.64812 18.2579 7.91387 18.5369C8.17963 18.8158 8.54255 18.9819 8.9274 19.0005C9.31225 19.0192 9.68952 18.889 9.98099 18.637C10.2725 18.385 10.4558 18.0305 10.493 17.647L10.499 17.5H10.5ZM8.99998 2.49601C5.67998 2.49601 2.99998 5.17001 2.99998 8.49601V12.906L1.65598 16H16.353L15 12.907V8.50901L14.996 8.28401C14.944 6.72943 14.2892 5.25606 13.1701 4.17578C12.051 3.09549 10.5554 2.49306 8.99998 2.49601Z"
    fill="var(--primary-icon)" ></path>
</symbol>
</defs>
</svg>