<svg width="16" height="20" viewBox="0 0 16 20" fill="none" xmlns="http://www.w3.org/2000/svg">
  <path
    d="M4.505 3.004C4.10718 3.004 3.72564 3.16204 3.44434 3.44334C3.16304 3.72464 3.005 4.10618 3.005 4.504C3.005 4.90182 3.16304 5.28336 3.44434 5.56466C3.72564 5.84596 4.10718 6.004 4.505 6.004H11.505C11.9028 6.004 12.2844 5.84596 12.5657 5.56466C12.847 5.28336 13.005 4.90182 13.005 4.504C13.005 4.10618 12.847 3.72464 12.5657 3.44334C12.2844 3.16204 11.9028 3.004 11.505 3.004H4.505ZM15.995 2.096C15.956 1.52721 15.7025 0.994443 15.2858 0.605369C14.869 0.216295 14.3201 -7.00219e-05 13.75 1.69987e-08H2.25L2.096 0.00500013C1.52721 0.0440221 0.994443 0.297514 0.605369 0.714247C0.216295 1.13098 -7.00219e-05 1.67987 1.69987e-08 2.25V17.75L0.00500013 17.904C0.0440221 18.4728 0.297514 19.0056 0.714247 19.3946C1.13098 19.7837 1.67987 20.0001 2.25 20H13.75L13.904 19.995C14.4728 19.956 15.0056 19.7025 15.3946 19.2858C15.7837 18.869 16.0001 18.3201 16 17.75V2.25L15.995 2.096ZM2.25 1.5H13.75L13.852 1.507C14.0316 1.53165 14.1961 1.62048 14.3152 1.75707C14.4344 1.89366 14.5 2.06876 14.5 2.25V17.75L14.493 17.852C14.4684 18.0316 14.3795 18.1961 14.2429 18.3152C14.1063 18.4344 13.9312 18.5 13.75 18.5H2.25L2.148 18.493C1.96845 18.4684 1.80389 18.3795 1.68477 18.2429C1.56564 18.1063 1.50001 17.9312 1.5 17.75V2.25L1.507 2.148C1.53165 1.96845 1.62048 1.80389 1.75707 1.68477C1.89366 1.56564 2.06876 1.50001 2.25 1.5Z"
    fill="var(--primary-icon)" />
</svg>