<svg width="16" height="20" viewBox="0 0 16 20" fill="none" xmlns="http://www.w3.org/2000/svg">
  <path
    d="M13.75 1.69987e-08C14.3201 -7.00219e-05 14.869 0.216295 15.2858 0.605369C15.7025 0.994443 15.956 1.52721 15.995 2.096L16 2.25V17.75C16.0001 18.3201 15.7837 18.869 15.3946 19.2858C15.0056 19.7025 14.4728 19.956 13.904 19.995L13.75 20H2.25C1.67987 20.0001 1.13098 19.7837 0.714247 19.3946C0.297514 19.0056 0.0440221 18.4728 0.00500013 17.904L1.69987e-08 17.75V2.25C-7.00219e-05 1.67987 0.216295 1.13098 0.605369 0.714247C0.994443 0.297514 1.52721 0.0440221 2.096 0.00500013L2.25 1.69987e-08H13.75ZM4.505 3.005C4.10718 3.005 3.72564 3.16304 3.44434 3.44434C3.16304 3.72564 3.005 4.10718 3.005 4.505C3.005 4.90282 3.16304 5.28436 3.44434 5.56566C3.72564 5.84696 4.10718 6.005 4.505 6.005H11.505C11.9028 6.005 12.2844 5.84696 12.5657 5.56566C12.847 5.28436 13.005 4.90282 13.005 4.505C13.005 4.10718 12.847 3.72564 12.5657 3.44434C12.2844 3.16304 11.9028 3.005 11.505 3.005H4.505Z"
    fill="var(--primary-icon)" />
</svg>