<svg width="18" height="20" viewBox="0 0 18 20" fill="none" xmlns="http://www.w3.org/2000/svg">
  <path
    d="M7.55 0.532007C7.95577 0.190029 8.46935 0.00247192 9 0.00247192C9.53065 0.00247192 10.0442 0.190029 10.45 0.532007L17.2 6.22401C17.707 6.65201 18 7.28101 18 7.94401V17.747C18 18.2111 17.8156 18.6563 17.4874 18.9844C17.1592 19.3126 16.7141 19.497 16.25 19.497H12.75C12.2859 19.497 11.8408 19.3126 11.5126 18.9844C11.1844 18.6563 11 18.2111 11 17.747V12.247C11 12.1807 10.9737 12.1171 10.9268 12.0702C10.8799 12.0233 10.8163 11.997 10.75 11.997H7.25C7.1837 11.997 7.12011 12.0233 7.07322 12.0702C7.02634 12.1171 7 12.1807 7 12.247V17.747C7 18.2111 6.81563 18.6563 6.48744 18.9844C6.15925 19.3126 5.71413 19.497 5.25 19.497H1.75C1.52019 19.497 1.29262 19.4517 1.0803 19.3638C0.867984 19.2759 0.675066 19.1469 0.512563 18.9844C0.350061 18.8219 0.221157 18.629 0.133211 18.4167C0.0452652 18.2044 0 17.9768 0 17.747V7.94401C0 7.28101 0.293 6.65201 0.8 6.22401L7.55 0.532007ZM9.483 1.67901C9.34779 1.56519 9.17673 1.50278 9 1.50278C8.82327 1.50278 8.65221 1.56519 8.517 1.67901L1.767 7.37001C1.68347 7.44032 1.6163 7.52803 1.57018 7.627C1.52406 7.72597 1.50011 7.83382 1.5 7.94301V17.746C1.5 17.884 1.612 17.996 1.75 17.996H5.25C5.3163 17.996 5.37989 17.9697 5.42678 17.9228C5.47366 17.8759 5.5 17.8123 5.5 17.746V12.246C5.5 11.279 6.284 10.496 7.25 10.496H10.75C11.716 10.496 12.5 11.279 12.5 12.246V17.746C12.5 17.884 12.612 17.996 12.75 17.996H16.25C16.3163 17.996 16.3799 17.9697 16.4268 17.9228C16.4737 17.8759 16.5 17.8123 16.5 17.746V7.94401C16.4999 7.83482 16.4759 7.72697 16.4298 7.628C16.3837 7.52903 16.3165 7.44132 16.233 7.37101L9.483 1.67901Z"
    fill="var(--primary-icon)" />
</svg>