<svg width="18" height="20" viewBox="0 0 18 20" fill="none" xmlns="http://www.w3.org/2000/svg">
  <path
    d="M6.04198 17.003H11.958C11.8398 17.702 11.4778 18.3365 10.9364 18.7941C10.3949 19.2517 9.7089 19.5028 8.99998 19.5028C8.29106 19.5028 7.60505 19.2517 7.06358 18.7941C6.52212 18.3365 6.16019 17.702 6.04198 17.003ZM8.99998 0.00299072C10.9891 0.00299072 12.8968 0.793167 14.3033 2.19969C15.7098 3.60621 16.5 5.51387 16.5 7.50299V11.503L17.918 14.663C17.9825 14.8075 18.0098 14.9659 17.9975 15.1236C17.9853 15.2814 17.9338 15.4336 17.8477 15.5665C17.7617 15.6993 17.6439 15.8085 17.5049 15.8842C17.3659 15.9599 17.2102 15.9997 17.052 16H0.951982C0.793514 16 0.63757 15.9603 0.498349 15.8846C0.359129 15.8089 0.241055 15.6996 0.154881 15.5666C0.0687061 15.4336 0.0171681 15.2812 0.00495981 15.1232C-0.0072485 14.9652 0.0202608 14.8066 0.0849826 14.662L1.49998 11.502V7.48999L1.50498 7.23999C1.57339 5.29784 2.39298 3.45807 3.79108 2.10828C5.18918 0.758493 7.05663 0.00308197 8.99998 0.00299072Z"
    fill="var(--primary-icon)" />
</svg>